#define cbbhh-jp5fh-0_width 16
#define cbbhh-jp5fh-0_height 16
static char cbbhh-jp5fh-0_bits[] = {
  0x00, 0x00, 0x00, 0x1C, 0x78, 0x3E, 0xF8, 0x3F, 0xFC, 0x3F, 0xFC, 0x3F, 
  0xFC, 0x3F, 0xB8, 0x0F, 0xF0, 0x1F, 0x70, 0x1F, 0xF0, 0x1F, 0xF8, 0x01, 
  0x80, 0x01, 0x80, 0x01, 0x00, 0x01, 0x00, 0x00, };
